<svg width="104" height="104" viewBox="0 0 104 104" fill="none" xmlns="http://www.w3.org/2000/svg">
<mask id="mask0_11_170" style="mask-type:luminance" maskUnits="userSpaceOnUse" x="0" y="0" width="104" height="104">
<path d="M100 0H4C1.79086 0 0 1.79086 0 4V100C0 102.209 1.79086 104 4 104H100C102.209 104 104 102.209 104 100V4C104 1.79086 102.209 0 100 0Z" fill="white"/>
</mask>
<g mask="url(#mask0_11_170)">
<mask id="mask1_11_170" style="mask-type:luminance" maskUnits="userSpaceOnUse" x="0" y="0" width="104" height="104">
<path d="M100 0H4C1.79086 0 0 1.79086 0 4V100C0 102.209 1.79086 104 4 104H100C102.209 104 104 102.209 104 100V4C104 1.79086 102.209 0 100 0Z" fill="white"/>
</mask>
<g mask="url(#mask1_11_170)">
<path d="M104 0H0V104H104V0Z" fill="white"/>
<path d="M88.2333 22H16.5C14.567 22 13 23.567 13 25.5V78.6C13 80.533 14.567 82.1 16.5 82.1H88.2333C90.1663 82.1 91.7333 80.533 91.7333 78.6V25.5C91.7333 23.567 90.1663 22 88.2333 22Z" fill="white"/>
<path d="M93.0436 16H11.9564C9.77134 16 8 17.8773 8 20.193V83.807C8 86.1227 9.77134 88 11.9564 88H93.0436C95.2287 88 97 86.1227 97 83.807V20.193C97 17.8773 95.2287 16 93.0436 16Z" fill="#B3D7BF"/>
</g>
</g>
<path d="M83.5 57H20.5C18.0147 57 16 59.0147 16 61.5C16 63.9853 18.0147 66 20.5 66H83.5C85.9853 66 88 63.9853 88 61.5C88 59.0147 85.9853 57 83.5 57Z" fill="white"/>
<path d="M82.5 77H21.5C20.6716 77 20 77.6716 20 78.5C20 79.3284 20.6716 80 21.5 80H82.5C83.3284 80 84 79.3284 84 78.5C84 77.6716 83.3284 77 82.5 77Z" fill="white"/>
<path d="M86.5 71H17.5C16.6716 71 16 71.6716 16 72.5C16 73.3284 16.6716 74 17.5 74H86.5C87.3284 74 88 73.3284 88 72.5C88 71.6716 87.3284 71 86.5 71Z" fill="white"/>
<circle cx="52" cy="35" r="12" fill="white"/>
</svg>
