<svg width="104" height="104" viewBox="0 0 104 104" fill="none" xmlns="http://www.w3.org/2000/svg">
<g clip-path="url(#clip0_667_1327)">
<g clip-path="url(#clip1_667_1327)">
<rect width="104" height="104" fill="#E7F2EA"/>
<rect x="12.1333" y="85.3667" width="27.7333" height="3.9" fill="#D6E4D8"/>
<rect x="12.1333" y="92.7334" width="24.2667" height="29.9" fill="#D6E4D8"/>
<rect x="39.8667" y="92.7334" width="24.2667" height="29.9" fill="#D6E4D8"/>
<rect x="67.6" y="92.7334" width="24.2667" height="29.9" fill="#D6E4D8"/>
<rect x="12.1333" y="-37.7" width="79.7333" height="44.5905" fill="#D6E4D8"/>
<rect x="12.6333" y="16.1001" width="78.7333" height="60.1" rx="3.5" fill="white"/>
<rect x="12.6333" y="16.1001" width="78.7333" height="60.1" rx="3.5" stroke="#157335"/>
<rect x="17.3333" y="20.8" width="16.4667" height="4.33333" fill="#C8EAD3"/>
<rect x="17.3333" y="28.6001" width="69.3333" height="3.9" fill="#DBF0E2"/>
<rect x="17.3333" y="35.9668" width="33.0448" height="9.1" fill="#DBF0E2"/>
<rect x="53.6219" y="35.9668" width="33.0448" height="9.1" fill="#DBF0E2"/>
<rect x="17.3333" y="55.4668" width="30.3333" height="3.46667" fill="#DBF0E2"/>
<rect x="17.3333" y="62.6167" width="43.3333" height="9.1" fill="#DBF0E2"/>
<rect x="66.1404" y="62.6167" width="20.5263" height="9.1" fill="#157335"/>
</g>
</g>
<defs>
<clipPath id="clip0_667_1327">
<rect width="104" height="104" rx="4" fill="white"/>
</clipPath>
<clipPath id="clip1_667_1327">
<rect width="104" height="104" rx="4" fill="white"/>
</clipPath>
</defs>
</svg>
