<svg width="40" height="40" viewBox="0 0 28 30" fill="none" xmlns="http://www.w3.org/2000/svg">
<path fillRule="evenodd" clipRule="evenodd" d="M19.3368 20.6835C19.1317 20.4979 18.8534 20.2586 18.5604 20.0047C17.9231 19.4578 17.2151 18.8498 16.8854 18.4372L16.8537 18.4591C16.1798 18.9206 15.3472 19.2283 14.2094 19.2258C13.1473 19.2234 12.3489 18.9279 11.6921 18.4909C11.531 18.3835 11.3821 18.2687 11.238 18.1491C10.9133 18.5739 10.1173 19.2502 9.40922 19.8509C8.97706 20.2171 8.57908 20.5541 8.3691 20.7591C7.63661 21.6748 6.98958 22.6514 6.4451 23.7428L8.69871 23.6866L13.8823 28.1939L19.0658 23.6866L21.3194 23.7428C20.7627 22.6197 20.0962 21.621 19.3368 20.6835ZM9.95615 15.9614C10.5812 16.3667 11.2697 16.6914 12.0218 16.9307C12.0974 16.7598 12.2024 16.6084 12.3538 16.4912C12.808 16.1396 14.1386 16.1738 14.5488 16.5132C14.8931 16.7988 14.898 17.4532 14.644 17.795C14.2046 18.3859 12.6077 18.0734 11.6531 17.8146C11.7971 17.9391 11.9485 18.0563 12.1072 18.1637C12.659 18.5324 13.328 18.7814 14.2119 18.7814C15.169 18.7839 15.8697 18.5251 16.4386 18.1369C16.5436 18.0636 16.6462 17.9879 16.7463 17.9049C16.778 17.8512 16.8269 17.8072 16.8879 17.7828C17.2786 17.4361 17.6179 17.0308 17.9549 16.6255L18.5555 15.9052C18.6288 15.8173 18.6532 15.788 18.68 15.7563C18.7533 15.6708 18.8363 15.5732 18.9169 15.4731C18.9388 15.4462 18.9681 15.4218 19.0023 15.4047C19.1 15.0873 19.1732 14.7552 19.2245 14.4061C19.3954 13.2658 19.4003 12.3795 18.8876 11.3296C18.4432 10.4238 17.8181 9.95256 17.1369 9.61562C17.8719 10.436 18.4798 11.232 18.3211 11.8863C17.4226 10.8999 16.4972 10.038 15.5377 9.32751C13.5331 8.29226 12.3538 6.88833 11.8289 5.18897C8.85742 8.15553 8.3398 11.6275 9.44097 15.4047C9.48003 15.4218 9.51421 15.4462 9.53863 15.4755L9.95615 15.9614ZM10.4616 17.3775C9.71931 17.0064 9.02101 16.4595 8.36177 15.915L7.15561 15.9467C6.98958 15.7563 6.85041 15.5365 6.73321 15.2899C6.63799 15.2802 6.54277 15.2606 6.44999 15.2313C5.29022 14.8675 4.32822 12.2892 4.51867 11.0733C4.6261 10.3847 4.87026 10.1357 5.2658 9.9843C5.24627 9.92814 5.2365 9.86954 5.2365 9.80606V7.21063C5.2365 6.23398 5.5295 5.27442 6.00561 4.40521C6.52568 3.45054 7.26793 2.59841 8.07854 1.95383C9.73396 0.632914 11.8777 -0.021439 14.0092 0.000535523C16.1237 0.0225101 18.2332 0.713487 19.8471 2.08323C20.626 2.74491 21.2828 3.61168 21.7418 4.5688C22.1886 5.50149 22.4474 6.52209 22.4474 7.52559V9.66933C22.4474 9.97453 22.2008 10.2211 21.8956 10.2211C21.7198 10.2211 21.5636 10.1406 21.4635 10.0112C21.7345 12.0475 21.4806 14.1424 20.6675 15.8808H19.2929C19.2611 15.9174 19.2318 15.954 19.2025 15.9882L19.0805 16.1323L18.4798 16.8526C18.1307 17.2725 17.7766 17.6949 17.3591 18.0636C17.5789 18.3517 18.3114 18.9792 18.9608 19.5383C19.1708 19.719 19.3759 19.8948 19.5541 20.0511C21.3341 20.7445 23.0725 21.455 24.4227 22.2998C25.4653 22.9517 26.0024 23.4449 26.4248 24.236C27.0914 25.4861 27.6164 26.873 27.7726 28.5186C27.9118 29.9909 27.8996 29.925 26.4859 29.9543C19.0341 30.1032 8.65721 29.8297 1.36654 29.9543C0.0407459 29.9762 -0.0959845 30.0715 0.0431875 28.1841C0.494886 26.0428 0.238517 26.326 1.35433 24.236C1.77673 23.4449 2.31389 22.9542 3.35646 22.2998C4.714 21.4477 6.46219 20.7347 8.25434 20.0389C8.47409 19.8435 8.74022 19.6165 9.02101 19.3772C9.80232 18.7131 10.6984 17.9537 10.7985 17.7291C10.6813 17.6168 10.569 17.4996 10.4616 17.3775ZM21.3414 9.29088V7.52804C21.3414 6.68812 21.1241 5.82867 20.7481 5.04491C20.3574 4.22697 19.7959 3.4896 19.1342 2.92559C17.7205 1.72432 15.8649 1.1188 13.997 1.09926C12.1072 1.07973 10.2125 1.65595 8.75975 2.81572C8.05657 3.37729 7.41442 4.10977 6.96761 4.9326C6.57695 5.64799 6.33767 6.42687 6.33767 7.21307V9.4325C6.93587 6.55383 8.15668 4.45648 10.0538 3.20393C11.4504 2.281 12.283 2.22973 13.9116 2.22973C15.335 2.22973 16.2067 2.19799 17.4202 2.9964C19.5151 4.37347 20.8433 6.74672 21.3414 9.29088ZM12.139 25.5179L13.1669 21.9531L12.6639 21.4013C12.4368 21.0692 12.388 20.7811 12.5125 20.5321C12.786 19.9925 13.35 20.0926 13.8774 20.0926C14.4292 20.0926 15.1104 19.9876 15.2838 20.6786C15.3424 20.9105 15.2691 21.1522 15.108 21.4013L14.605 21.9531L15.6329 25.5179L13.8871 26.8974L12.139 25.5179Z" fill="#3D3D3D"/>
</svg>
