<svg width="104" height="104" viewBox="0 0 104 104" fill="none" xmlns="http://www.w3.org/2000/svg">
<mask id="mask0_11_168" style="mask-type:luminance" maskUnits="userSpaceOnUse" x="0" y="0" width="104" height="104">
<path d="M100 0H4C1.79086 0 0 1.79086 0 4V100C0 102.209 1.79086 104 4 104H100C102.209 104 104 102.209 104 100V4C104 1.79086 102.209 0 100 0Z" fill="white"/>
</mask>
<g mask="url(#mask0_11_168)">
<mask id="mask1_11_168" style="mask-type:luminance" maskUnits="userSpaceOnUse" x="0" y="0" width="104" height="104">
<path d="M100 0H4C1.79086 0 0 1.79086 0 4V100C0 102.209 1.79086 104 4 104H100C102.209 104 104 102.209 104 100V4C104 1.79086 102.209 0 100 0Z" fill="white"/>
</mask>
<g mask="url(#mask1_11_168)">
<path d="M104 0H0V104H104V0Z" fill="white"/>
<path d="M83.5 57H20.5C18.0147 57 16 59.0147 16 61.5C16 63.9853 18.0147 66 20.5 66H83.5C85.9853 66 88 63.9853 88 61.5C88 59.0147 85.9853 57 83.5 57Z" fill="#B3D7BF"/>
<path d="M82.5 77H21.5C20.6716 77 20 77.6716 20 78.5C20 79.3284 20.6716 80 21.5 80H82.5C83.3284 80 84 79.3284 84 78.5C84 77.6716 83.3284 77 82.5 77Z" fill="#B3D7BF"/>
<path d="M86.5 71H17.5C16.6716 71 16 71.6716 16 72.5C16 73.3284 16.6716 74 17.5 74H86.5C87.3284 74 88 73.3284 88 72.5C88 71.6716 87.3284 71 86.5 71Z" fill="#B3D7BF"/>
</g>
</g>
<circle cx="52" cy="35" r="12" fill="#B3D7BF"/>
</svg>
